Patient4_TMGait_0pt5_02_left_31_EMG.mot
version=1
nRows=30
nColumns=33
inDegrees=no
endheader
time	1LAddLong	2LGlutMax	3LGlutMed	4LIliopsoas	5LSemiMemb	6LBicFemLong	7LRecFem	8LVastMed	9LVastLat	10LGasMed	11LTibAnt	12lTibPost	13LPeroneusLong	14LSol	15LExtDigLong	16LFlexDigLong	17RAddLong	18RGlutMax	19RGlutMed	20RIliopsoas	21RSemiMemb	22RBicFemLong	23RRecFem	24RVastMed	25RVastLat	26RGasMed	27RTibAnt	28RTibPost	29RPeroneusLong	30RSol	31RExtDigLong	32RFlexDigLong
41.195	0.015411	-0.013885	-0.052948	0.012207	-0.023041	0.03006	0.058136	0.010223	-0.054474	0.022888	0.27939	-0.013275	0.10529	-0.032349	0.15442	-0.006714	-0.005188	-0.035248	0.042267	-0.10956	0.03891	0.009918	-0.094757	0.00412	-0.0914	0.004883	-0.003967	0.007324	-2.3933	0.13825	-0.004425	-0.003815
41.196	0.011139	0.009918	-0.025024	0.032349	-0.041199	0.030823	0.070953	0.015869	-0.018158	0.039673	0.15579	-0.013123	0.055542	-0.035095	-0.18188	0.001373	-0.026398	0.031281	0.059509	-0.063782	-0.012054	0.053864	-0.27618	0.23163	0.031586	0.004883	0.14648	0.004425	-2.1562	-0.018005	-0.005493	-0.003967
41.197	0.014954	0.067596	-0.023346	0.050659	-0.030823	0.022278	0.06485	0.024414	0.004272	0.031281	0.060425	-0.015106	0.079498	-0.03891	-0.03891	0.005798	-0.025177	-0.021057	-0.12207	0.020142	0.002289	0.12589	-0.24078	0.4541	0.090027	0.01297	-0.042877	-0.013123	1.1885	-0.03952	0.002136	-0.005035
41.198	0.017853	0.066986	-0.029144	0.027313	0.01236	0.021973	0.074463	0.023041	0.037384	0.002441	0.10178	-0.009308	0.045929	0.027618	-0.34409	0.001526	-0.010529	-0.014191	0.045166	-0.055695	-0.011902	0.054016	-0.099945	0.37491	0.10346	0.007019	-0.18387	-0.020905	1.8211	-0.002594	0.001526	-0.006256
41.199	0.003052	0.070038	-0.034332	-0.009613	0.058136	0.000916	0.068054	0.01358	0.079956	-0.039215	0.027771	-0.007324	0.077209	0.081482	-0.31708	-0.003967	0.008087	0.011902	0.046539	-0.10605	-0.044861	-0.005341	-0.039063	0.43884	0.086975	-0.009003	0.06485	-0.014801	0.51559	-0.052032	-0.004272	-0.007019
41.2	0.006409	0.0737	-0.029297	-0.014648	0.006561	-0.012665	0.077667	0.013428	0.10437	-0.056458	-0.038757	0.016479	0.15289	0.06424	-0.48477	-0.015717	0.011139	0.011597	0.10162	-0.083923	-0.042725	0.00061	-0.19257	0.23956	0.09552	-0.005951	0.14603	-0.021057	0.64117	-0.12955	-0.002136	0.008087
41.201	0.005951	0.062103	-0.018158	-0.014343	-0.018768	-0.064392	0.079803	0.015259	0.12817	-0.048981	-0.12528	-0.021362	0.19669	0.032654	-0.46524	-0.009155	0.012054	-0.051727	0.01709	0.020752	-0.047607	0.055847	-0.061188	0.10635	0.086975	0.000458	0.12238	-0.02182	0.95673	-0.13214	-0.004272	-0.00946
41.202	0.016479	0.085754	-0.02121	0.002747	-0.051727	-0.084076	0.069885	0.006104	0.13992	-0.12177	-0.21713	-0.029297	0.17746	-0.0177	-0.17777	-0.008392	0.014343	-0.038757	0.3804	0.14053	-0.035553	0.059814	-0.013123	0.061493	0.037842	0.000153	0.056305	-0.017853	0.30533	-0.16357	-0.001526	-0.00412
41.203	0.022583	0.097046	-0.049896	-0.003815	-0.032501	-0.10468	0.056	0.01236	0.14877	-0.11841	-0.20752	-0.041046	0.094147	-0.091705	0.09491	-0.021362	0.014496	-0.083771	-0.40527	0.33752	-0.00946	0.000305	0.016479	0.015411	0.01236	0.002899	-0.088959	-0.018768	-0.68314	-0.11688	-0.006714	-0.010071
41.204	0.026855	0.097656	-0.055542	-0.002441	0.063019	-0.079193	0.069275	0.011597	0.15396	-0.039978	-0.15015	0.090485	0.001984	-0.055847	0.31158	-0.011139	0.006866	-0.11169	-0.83511	0.37537	0.019989	-0.013885	0.07782	0.011292	0.022125	-0.001068	-0.030212	-0.020599	-1.0924	-0.002136	-0.003815	-0.001526
41.205	0.021973	0.099182	-0.050049	0.006409	0.060577	-0.054474	0.063629	0.013123	0.15472	0.030823	0.064087	-0.033875	-0.081635	-0.033875	0.15198	-0.00473	-0.000916	-0.078278	-0.18601	0.11368	0.018005	-0.032501	0.090179	0.021515	-0.01297	0	-0.030823	-0.022278	-0.60394	0.057678	-0.002747	0.001984
41.206	0.021973	0.090942	-0.043182	0.005341	0.023804	-0.03418	0.06546	0.011749	0.15457	0.084534	0.17425	-0.075531	-0.083313	-0.041504	-0.083008	-0.014648	0.018311	-0.041656	-0.042572	-0.028229	-0.003204	-0.022736	0.050507	-0.007324	0.025635	-0.005798	0.003052	-0.02182	0.13199	-0.016632	-0.00412	-0.005951
41.207	0.011597	0.11612	-0.029907	-0.001831	0.016479	-0.024872	0.059967	0.010376	0.15701	0.12726	0.18494	-0.069733	-0.049286	-0.03418	-0.2298	-0.005035	0.009613	-0.066681	0.08194	-0.032959	-0.007324	-0.04364	0.12116	-0.041504	0.021057	0.000305	0.0177	-0.015869	0.052795	-0.13031	-0.000305	-0.013123
41.208	0.009766	0.10391	-0.044861	0.004883	0.016632	-0.021515	0.052795	0.01236	0.159	0.075684	0.097198	-0.049133	0.078735	-0.038452	-0.1738	-0.028839	0.011597	-0.02655	0.26504	-0.041809	-0.001221	-0.058441	0.19531	-0.036316	0.024719	0.00824	0.010529	-0.015717	-0.22507	-0.18204	0.001831	-0.005035
41.209	0.010223	0.061646	-0.027771	0.003967	0.018158	-0.014954	0.047455	0.014801	0.15228	0.021973	0.086517	-0.031891	0.13092	-0.055237	-0.31662	-0.022736	0.009766	0.026093	0.4068	-0.084839	0.009308	-0.076141	0.20508	-0.023499	0.00946	0.004883	0.026245	-0.019073	-0.52628	-0.066528	-0.012207	-0.015259
41.21	0.006409	0.070801	-0.031281	0.006714	0.018158	-0.027466	0.051422	0.01358	0.15533	0.024719	0.121	-0.014343	0.10986	-0.025635	-0.13977	-0.021667	0.006561	0.008545	0.23178	-0.056458	0.018158	-0.048218	0.11795	-0.091095	0.045776	-0.001221	0.15243	-0.020905	-1.5114	0.007324	-0.003662	-0.016785
41.211	0.007324	0.053253	-0.036469	-0.006409	0.002899	-0.032654	0.053558	0.014954	0.15427	0.026093	0.19424	-0.000763	0.053711	0.014343	-0.098419	-0.018158	0.000153	0.095062	0.14313	-0.017548	0.008545	0.009308	0.094604	-0.19409	0.027008	0.001526	0.039673	-0.007935	-0.15259	-0.13382	-0.00412	-0.007477
41.212	-0.007477	0.048676	-0.026245	0.014496	-0.013123	-0.065613	0.026703	0.006104	0.1561	0.050812	0.19272	0.016479	0.031891	0.018768	-0.1059	-0.028076	0	0.14648	-0.36453	-0.051117	-0.004578	0.003967	0.2507	-0.17456	-0.01297	0.000305	-0.075378	-0.014801	0.68512	-0.093842	-0.000458	-0.005798
41.213	0.01709	0.015869	-0.036316	0.00946	-0.024567	-0.058899	0.040894	0.007477	0.15411	0.053864	0.19302	0.016785	-0.010681	0.004578	-0.25482	-0.036316	-0.015564	0.13641	-0.48889	-0.004425	-0.001373	0.026398	-0.031891	-0.001373	-0.018005	-0.010223	-0.21866	-0.011597	0.4808	0	-0.001221	-0.007629
41.214	0.01709	0	-0.031128	0.010376	-0.025635	-0.045776	0.061646	0.002594	0.15884	0.004578	0.1033	0.038605	-0.029144	-0.041504	-0.31586	-0.020599	-0.00946	0.25543	-0.052795	0.007629	-0.01297	0.003815	-0.18951	-0.002441	-0.015106	-0.006561	-0.090637	-0.011292	0.24277	0.13153	0.000305	-0.014648
41.215	0.021057	0.023346	-0.021667	0.016174	-0.023041	-0.036316	0.039368	0.00473	0.15823	-0.016174	0.017395	0.04364	0.030823	-0.068817	-0.23636	-0.017548	0.003662	0.28091	0.42679	0.007629	-0.021362	-0.007629	-0.19577	-0.040131	-0.028229	-0.002594	0.005035	-0.016937	0.35477	0.082703	0.000916	-0.012207
41.216	0.016937	-0.01236	-0.031281	0.006256	0.010529	-0.026093	0.042419	0.006104	0.15732	-0.039215	-0.17548	0.052795	0.066681	-0.015411	-0.21759	-0.00946	0.00824	0.24841	1.0712	-0.054626	-0.065308	-0.025787	-0.036621	-0.074005	-0.11215	-0.000763	0.027313	-0.000305	0.28397	-0.013123	-0.004578	-0.012054
41.217	0.01297	-0.050049	-0.030518	0.002289	-0.000305	-0.009003	0.044861	0.006104	0.15839	-0.019989	-0.20966	0.054779	0.10635	0.030365	-0.09491	-0.014801	0.025024	0.24963	0.74478	-0.081329	-0.094757	-0.063934	0.05661	-0.11368	-0.16647	0.004272	0.045166	-0.00946	0.1358	-0.03952	-0.000305	-0.00473
41.218	0.00412	-0.081635	-0.026093	0.003052	-0.005035	-0.030518	0.04837	0.00824	0.15808	0.01236	-0.10101	0.092621	0.078278	-0.018921	-0.024261	-0.007019	0.014191	0.2562	-0.098877	-0.015259	-0.10529	-0.01297	-0.01236	-0.11063	-0.20569	-0.005798	-0.050659	-0.006409	0.26489	-0.06897	-0.001831	-0.005798
41.219	0.007172	-0.11322	-0.029297	-0.00412	-0.003357	-0.045166	0.03891	0.003662	0.15656	-0.004425	-0.020599	0.075073	0.010834	-0.04425	-0.079498	-0.00412	-0.013733	0.16037	-0.63507	0.026398	0.005035	0.003815	0.013885	0.007477	-0.13428	-0.021667	0.020905	-0.014191	0.16388	0.08194	-0.00351	-0.010681
41.22	0.00885	-0.10574	-0.024719	0.000763	0.002594	-0.041046	0.032501	0.003662	0.1506	0.001831	0.009308	0.040436	0.014191	-0.072327	-0.090027	0.002441	-0.027161	0.19226	-0.74005	0.000458	0.09491	0.041351	-0.066071	0.11444	-0.055695	-0.0177	0.15686	-0.010223	-0.14679	0.11032	-0.00351	-0.019379
41.221	0.012817	-0.12299	-0.036011	0.000153	-0.004272	-0.057831	0.052948	0.007629	0.14908	-0.006409	-0.052948	0.081635	0.10208	-0.046539	-0.18402	-0.00061	-0.028076	0.271	-0.96619	0.040741	0.092163	0.013885	-0.20233	0.20233	0.066528	-0.013885	0.1471	-0.007172	-0.67413	0.098114	-0.004578	-0.015717
41.222	0.012512	-0.1265	-0.038757	0.004578	-0.003357	-0.056	0.050354	0.006714	0.14511	-0.031128	-0.039215	0.027313	0.14313	-0.014343	-0.32349	0.007172	-0.020447	0.23422	-0.064697	-0.03479	0.075531	0.063782	-0.18082	0.18295	0.086212	-0.003204	-0.006561	-0.000916	0.1152	0.034332	-0.000763	-0.016479
41.223	0.012665	-0.15945	-0.028534	0.010834	-0.006714	-0.026093	0.059967	0.007324	0.14465	-0.023193	-0.032654	0.006866	0.093994	0.001526	-0.43152	0.014191	0.013275	0.25223	0.34027	-0.050049	0.074158	0.022583	-0.20355	-0.029297	-0.000763	-0.002136	-0.033264	0.000153	1.4624	-0.06546	0.000763	-0.014343
41.224	0.004883	-0.17029	-0.038452	-0.003052	-0.018463	-0.024414	0.070648	0.010834	0.14648	-0.007477	0.048523	0.013123	0.002441	-0.020599	-0.40024	-0.010834	0.027313	0.19959	0.28153	0.04364	0.072784	0.001831	0.004883	-0.076447	-0.020447	-0.021973	0.07309	-0.003815	0.04425	-0.09903	0.004425	-0.012817
